# xmcd
#
# Track frame offsets: 
#        150
#        15330
#        29452
#        47647
#        63522
#        79717
#        93700
#        112057
#        127072
#        143292
#        159877
#        173472
#        190422
#        208967
#        225817
#        243162
#        261627
#        278425
#        296422
#        309535
#
# Disc length: 4320 seconds
#
# Revision: 6
# Processed by: cddbd v1.5.2PL0 Copyright (c) Steve Scherf et al.
# Submitted via: ExactAudioCopyFreeDBPlugin 1.0
#
DISCID=0d10de14
DTITLE=Julio Iglesias - Da Manuela A Pensami
DYEAR=1978
DGENRE=Oldies
TTITLE0=Manuela
TTITLE1=Da Quando Sei Tornata
TTITLE2=Bimba
TTITLE3=Quella Di Sempre
TTITLE4=Caminito
TTITLE5=Se Mi Lasci Non Vale
TTITLE6=A Eleonora Perché È Un Fiore
TTITLE7=Anima Ribelle
TTITLE8=Non Rimane Che Un Addio
TTITLE9=Solamente Una Vez
TTITLE10=Sono Un Pirata, Sono Un Signore
TTITLE11=Un Amore A Matita
TTITLE12=Restiamo Ancora Insieme
TTITLE13=Passar Di Mano
TTITLE14=Guantanamera
TTITLE15=Pensami
TTITLE16=Piccole Grandi Cose
TTITLE17=La Ragazza Di Ypacaria
TTITLE18=Quel Punto Di Più
TTITLE19=De Un Mundo Raro
EXTD=
EXTT0=
EXTT1=
EXTT2=
EXTT3=
EXTT4=
EXTT5=
EXTT6=
EXTT7=
EXTT8=
EXTT9=
EXTT10=
EXTT11=
EXTT12=
EXTT13=
EXTT14=
EXTT15=
EXTT16=
EXTT17=
EXTT18=
EXTT19=
PLAYORDER=
